<svg width="278" height="50" viewBox="0 0 278 50" fill="none" xmlns="http://www.w3.org/2000/svg">
<path d="M35.7897 35.36C33.2217 35.36 30.9057 34.808 28.8417 33.704C26.7777 32.576 25.1577 31.028 23.9817 29.06C22.8057 27.068 22.2177 24.848 22.2177 22.4C22.2177 19.952 22.8057 17.744 23.9817 15.776C25.1577 13.784 26.7777 12.236 28.8417 11.132C30.9057 10.004 33.2217 9.44 35.7897 9.44C38.3577 9.44 40.6737 10.004 42.7377 11.132C44.8017 12.236 46.4217 13.772 47.5977 15.74C48.7737 17.708 49.3617 19.928 49.3617 22.4C49.3617 24.872 48.7737 27.092 47.5977 29.06C46.4217 31.028 44.8017 32.576 42.7377 33.704C40.6737 34.808 38.3577 35.36 35.7897 35.36ZM35.7897 31.256C37.4697 31.256 38.9817 30.884 40.3257 30.14C41.6697 29.372 42.7257 28.316 43.4937 26.972C44.2617 25.604 44.6457 24.08 44.6457 22.4C44.6457 20.72 44.2617 19.208 43.4937 17.864C42.7257 16.496 41.6697 15.44 40.3257 14.696C38.9817 13.928 37.4697 13.544 35.7897 13.544C34.1097 13.544 32.5977 13.928 31.2537 14.696C29.9097 15.44 28.8537 16.496 28.0857 17.864C27.3177 19.208 26.9337 20.72 26.9337 22.4C26.9337 24.08 27.3177 25.604 28.0857 26.972C28.8537 28.316 29.9097 29.372 31.2537 30.14C32.5977 30.884 34.1097 31.256 35.7897 31.256ZM72.2203 16.064C69.8443 14.72 67.3723 13.904 64.8043 13.616V35H60.1243V13.616C57.5323 13.904 55.0483 14.72 52.6723 16.064L51.0523 12.464C52.7323 11.456 54.5323 10.7 56.4523 10.196C58.3963 9.692 60.3883 9.44 62.4283 9.44C64.4683 9.44 66.4603 9.692 68.4043 10.196C70.3483 10.7 72.1603 11.456 73.8403 12.464L72.2203 16.064ZM100.094 9.8V35H95.4861V13.76H82.4181V35H77.8101V9.8H100.094ZM117.316 9.584C120.724 9.584 123.388 10.448 125.308 12.176C127.228 13.88 128.188 16.256 128.188 19.304C128.188 22.232 127.312 24.536 125.56 26.216C123.808 27.872 121.384 28.7 118.288 28.7C117.088 28.7 115.936 28.568 114.832 28.304C113.728 28.04 112.528 27.596 111.232 26.972V35H106.624V19.916C106.624 16.604 107.548 14.06 109.396 12.284C111.244 10.484 113.884 9.584 117.316 9.584ZM117.46 25.028C119.356 25.028 120.832 24.536 121.888 23.552C122.968 22.568 123.508 21.188 123.508 19.412C123.508 17.612 122.968 16.208 121.888 15.2C120.808 14.168 119.32 13.652 117.424 13.652C115.48 13.652 113.956 14.192 112.852 15.272C111.772 16.352 111.232 17.876 111.232 19.844V22.904C112.096 23.6 113.056 24.128 114.112 24.488C115.192 24.848 116.308 25.028 117.46 25.028ZM143.137 9.44C145.393 9.44 147.361 9.884 149.041 10.772C150.721 11.66 152.017 12.98 152.929 14.732C153.865 16.46 154.333 18.56 154.333 21.032V35H149.653V28.52H136.549V35H131.941V21.032C131.941 18.56 132.397 16.46 133.309 14.732C134.245 12.98 135.553 11.66 137.233 10.772C138.913 9.884 140.881 9.44 143.137 9.44ZM149.653 24.596V20.6C149.653 18.272 149.077 16.52 147.925 15.344C146.773 14.144 145.165 13.544 143.101 13.544C141.037 13.544 139.429 14.144 138.277 15.344C137.125 16.52 136.549 18.272 136.549 20.6V24.596H149.653ZM177.62 21.896C179.228 22.328 180.452 23.072 181.292 24.128C182.132 25.16 182.552 26.456 182.552 28.016C182.552 30.224 181.736 31.94 180.104 33.164C178.472 34.388 176.108 35 173.012 35H161.06V9.8H172.328C175.16 9.8 177.368 10.364 178.952 11.492C180.536 12.62 181.328 14.216 181.328 16.28C181.328 17.6 181.004 18.74 180.356 19.7C179.732 20.66 178.82 21.392 177.62 21.896ZM165.668 20.564H171.932C173.444 20.564 174.596 20.264 175.388 19.664C176.18 19.064 176.576 18.176 176.576 17C176.576 15.824 176.18 14.936 175.388 14.336C174.596 13.712 173.444 13.4 171.932 13.4H165.668V20.564ZM172.868 31.4C176.18 31.4 177.836 30.152 177.836 27.656C177.836 25.208 176.18 23.984 172.868 23.984H165.668V31.4H172.868ZM209.519 9.8V35H205.019V31.796C203.315 34.172 200.675 35.36 197.099 35.36C194.123 35.36 191.783 34.436 190.079 32.588C188.375 30.716 187.523 28.076 187.523 24.668V9.8H192.203V24.488C192.203 26.72 192.731 28.412 193.787 29.564C194.867 30.692 196.343 31.256 198.215 31.256C200.231 31.256 201.839 30.656 203.039 29.456C204.239 28.232 204.839 26.42 204.839 24.02V9.8H209.519ZM234.466 16.064C232.09 14.72 229.618 13.904 227.05 13.616V35H222.37V13.616C219.778 13.904 217.294 14.72 214.918 16.064L213.298 12.464C214.978 11.456 216.778 10.7 218.698 10.196C220.642 9.692 222.634 9.44 224.674 9.44C226.714 9.44 228.706 9.692 230.65 10.196C232.594 10.7 234.406 11.456 236.086 12.464L234.466 16.064ZM251.612 17.54C253.484 17.54 255.128 17.888 256.544 18.584C257.984 19.28 259.1 20.3 259.892 21.644C260.708 22.964 261.116 24.548 261.116 26.396C261.116 29.252 260.156 31.484 258.236 33.092C256.34 34.676 253.652 35.468 250.172 35.468C246.716 35.468 244.076 34.676 242.252 33.092C240.452 31.484 239.552 29.156 239.552 26.108V9.8H244.16V19.34C246.728 18.14 249.212 17.54 251.612 17.54ZM250.352 31.652C252.248 31.652 253.724 31.196 254.78 30.284C255.86 29.372 256.4 28.124 256.4 26.54C256.4 24.884 255.836 23.588 254.708 22.652C253.58 21.716 252.14 21.248 250.388 21.248C249.356 21.248 248.3 21.428 247.22 21.788C246.14 22.148 245.12 22.676 244.16 23.372V25.964C244.16 27.788 244.7 29.192 245.78 30.176C246.86 31.16 248.384 31.652 250.352 31.652Z" fill="white"/>
<line x1="4" y1="48" x2="278" y2="48" stroke="white" stroke-width="4"/>
<line x1="2" y1="50" x2="2" y2="20" stroke="white" stroke-width="4"/>
<line x1="276" y1="50" x2="276" y2="20" stroke="white" stroke-width="4"/>
</svg>
