<svg width="184" height="32" viewBox="0 0 184 32" fill="none" xmlns="http://www.w3.org/2000/svg">
<path d="M17.1953 29.2227C17.8854 29.2227 18.2305 29.5156 18.2305 30.1016C18.2305 30.3359 18.0872 30.5443 17.8008 30.7266C17.5273 30.9089 17.0326 31 16.3164 31H0.457031V3.36328H10.418V29.7109H14.0703C14.8906 29.7109 15.5938 29.6328 16.1797 29.4766C16.7786 29.3073 17.1172 29.2227 17.1953 29.2227ZM26.0039 6.72266C24.6628 6.72266 23.6146 6.42318 22.8594 5.82422C22.1042 5.22526 21.7266 4.4375 21.7266 3.46094C21.7266 2.64062 22.1432 1.9375 22.9766 1.35156C23.862 0.726562 24.7995 0.414062 25.7891 0.414062C26.7786 0.414062 27.5404 0.511719 28.0742 0.707031C28.6211 0.902344 29.0833 1.15625 29.4609 1.46875C30.2161 2.10677 30.5938 2.84896 30.5938 3.69531C30.5938 4.54167 30.1641 5.25781 29.3047 5.84375C28.4453 6.42969 27.3451 6.72266 26.0039 6.72266ZM21.9023 10.1406H30.3008V31H21.9023V10.1406ZM49.9883 31.3711C48.1784 31.3711 46.4271 30.9609 44.7344 30.1406V31H36.707V3.36328H44.7344V11.1367C46.388 10.2383 48.1198 9.78906 49.9297 9.78906C51.7396 9.78906 53.3281 10.056 54.6953 10.5898C56.0625 11.1237 57.2344 11.8594 58.2109 12.7969C60.2292 14.776 61.2383 17.3086 61.2383 20.3945C61.2383 23.5065 60.2422 26.0911 58.25 28.1484C56.1927 30.2969 53.4388 31.3711 49.9883 31.3711ZM49.9297 11.2148C48.0026 11.2148 46.2708 11.7487 44.7344 12.8164V28.4805C46.4401 29.444 48.3542 29.9258 50.4766 29.9258H50.9844C51.1406 29.9258 51.2904 29.9128 51.4336 29.8867V11.332C50.9388 11.2539 50.4375 11.2148 49.9297 11.2148ZM79.5195 21.5273L81.1211 21.6445C83.4128 21.6445 85.3594 20.8438 86.9609 19.2422C88.5625 17.6406 89.3633 15.6484 89.3633 13.2656C89.3633 10.1406 87.9896 7.82292 85.2422 6.3125C83.7318 5.47917 82.1172 4.9974 80.3984 4.86719C79.6693 4.80208 78.9922 4.76953 78.3672 4.76953H77.0391C76.7656 4.76953 76.5247 4.77604 76.3164 4.78906V31H66.3555V3.36328C69.4023 3.36328 71.8698 3.36328 73.7578 3.36328C75.6458 3.36328 76.8763 3.36979 77.4492 3.38281C78.0221 3.39583 78.5299 3.41536 78.9727 3.44141C79.4284 3.45443 79.8516 3.47396 80.2422 3.5C80.8151 3.55208 81.6224 3.67578 82.6641 3.87109C83.7188 4.06641 84.7604 4.4375 85.7891 4.98438C86.8177 5.53125 87.7031 6.20833 88.4453 7.01562C90.0469 8.73438 90.8477 10.7786 90.8477 13.1484C90.8477 15.4922 90.1055 17.5625 88.6211 19.3594C87.0977 21.1953 85.0664 22.3802 82.5273 22.9141C83.7383 26.6641 85.2812 28.9036 87.1562 29.6328C87.7292 29.8542 88.3021 29.9648 88.875 29.9648L90.418 29.5938C90.8997 29.5938 91.1406 29.8411 91.1406 30.3359C91.1406 31.026 90.3333 31.3711 88.7188 31.3711C87.5469 31.3711 86.4727 31.0456 85.4961 30.3945C83.9727 29.4831 82.6771 27.7122 81.6094 25.082L81.043 23.6953C80.9518 23.474 80.8672 23.3372 80.7891 23.2852C80.724 23.2331 80.6003 23.207 80.418 23.207C80.2487 23.207 80.099 23.2201 79.9688 23.2461L79.5 23.2656C78.9792 23.2656 78.6211 23.168 78.4258 22.9727C78.2435 22.7773 78.1523 22.5755 78.1523 22.3672C78.1523 21.8073 78.6081 21.5273 79.5195 21.5273ZM93.8164 20.4531C93.8164 18.8906 94.0964 17.4714 94.6562 16.1953C95.2292 14.9062 96.0104 13.7865 97 12.8359C99.1354 10.8047 101.818 9.78906 105.047 9.78906C108.341 9.78906 111.023 10.8438 113.094 12.9531C115.073 14.9453 116.062 17.4648 116.062 20.5117C116.062 23.5716 115.047 26.1302 113.016 28.1875C110.919 30.3099 108.237 31.3711 104.969 31.3711C101.779 31.3711 99.1354 30.362 97.0391 28.3438C94.8906 26.2604 93.8164 23.6302 93.8164 20.4531ZM104.422 29.9062C104.526 29.9193 104.63 29.9258 104.734 29.9258H105.008C107.638 29.9258 109.845 29.112 111.629 27.4844C113.53 25.7266 114.48 23.4219 114.48 20.5703C114.48 17.7839 113.589 15.5247 111.805 13.793C110.047 12.0742 107.775 11.2148 104.988 11.2148H104.695C104.604 11.2148 104.513 11.2214 104.422 11.2344V29.9062ZM119.285 20.4531C119.285 18.8906 119.565 17.4714 120.125 16.1953C120.698 14.9062 121.479 13.7865 122.469 12.8359C124.604 10.8047 127.286 9.78906 130.516 9.78906C133.81 9.78906 136.492 10.8438 138.562 12.9531C140.542 14.9453 141.531 17.4648 141.531 20.5117C141.531 23.5716 140.516 26.1302 138.484 28.1875C136.388 30.3099 133.706 31.3711 130.438 31.3711C127.247 31.3711 124.604 30.362 122.508 28.3438C120.359 26.2604 119.285 23.6302 119.285 20.4531ZM129.891 29.9062C129.995 29.9193 130.099 29.9258 130.203 29.9258H130.477C133.107 29.9258 135.314 29.112 137.098 27.4844C138.999 25.7266 139.949 23.4219 139.949 20.5703C139.949 17.7839 139.057 15.5247 137.273 13.793C135.516 12.0742 133.243 11.2148 130.457 11.2148H130.164C130.073 11.2148 129.982 11.2214 129.891 11.2344V29.9062ZM169.168 15.5312C169.194 15.8438 169.207 16.1562 169.207 16.4688V31H160.828V12.0547C160.685 11.9896 160.516 11.957 160.32 11.957H159.695C158.68 11.957 157.495 12.6536 156.141 14.0469C155.724 14.4766 155.327 14.9518 154.949 15.4727V31H146.551V10.1406H154.949V13.2852C157.15 10.9544 159.611 9.78906 162.332 9.78906C165.848 9.78906 168.016 11.0911 168.836 13.6953C169.956 12.4062 171.186 11.4362 172.527 10.7852C173.882 10.1211 175.242 9.78906 176.609 9.78906C178.94 9.78906 180.665 10.3424 181.785 11.4492C182.905 12.556 183.465 14.2292 183.465 16.4688V31H175.086V12.0352C174.969 11.9831 174.676 11.957 174.207 11.957C173.738 11.957 173.302 12.0482 172.898 12.2305C172.508 12.3997 172.104 12.6406 171.688 12.9531C170.776 13.6172 169.936 14.4766 169.168 15.5312Z" fill="white"/>
</svg>
